<?xml version="1.0" standalone="no"?><!DOCTYPE svg PUBLIC "-//W3C//DTD SVG 1.1//EN" "http://www.w3.org/Graphics/SVG/1.1/DTD/svg11.dtd"><svg t="1537880095375" class="icon" style="" viewBox="0 0 1024 1024" version="1.1" xmlns="http://www.w3.org/2000/svg" p-id="5123" xmlns:xlink="http://www.w3.org/1999/xlink" width="200" height="200"><defs><style type="text/css"></style></defs><path d="M638.692 331.094h31.412v79.574h-31.412z" fill="#FAEDD6" p-id="5124"></path><path d="M799.934 522.968L512 315.046 224.066 522.968v32.194h79.574v-32.194L512 379.022l208.36 143.946v32.194h79.574z" fill="#36C9A3" p-id="5125"></path><path d="M304.074 970.802V531.194l207.922-152.172 207.922 152.172v439.608" fill="#FFFFFF" p-id="5126"></path><path d="M585.02 519.478c-16.132-16.132-42.288-16.132-58.418 0l-14.604 14.604-14.604-14.604c-16.132-16.132-42.288-16.132-58.418 0-16.132 16.132-16.132 42.288 0 58.418l14.604 14.604 58.418 58.418 58.418-58.418 14.604-14.604c16.132-16.13 16.132-42.286 0-58.418zM304.08 762.872h415.84v207.92H304.08z" fill="#FA004B" p-id="5127"></path><path d="M448.13 969.788V714.312h127.74v255.476" fill="#FAEDD6" p-id="5128"></path><path d="M0 955.128h1024v31.412H0z" fill="#232323" p-id="5129"></path><path d="M1007.248 858.802h-14.66v-31.41h-31.41v31.41h-33.506v-31.41h-31.41v31.41h-31.412v-31.41H833.44v31.41h-35.6v-31.41h-31.41v31.41h-14.66v31.412h14.66v48.164h31.41v-48.164h35.6v48.164h31.41v-48.164h31.412v48.164h31.41v-48.164h33.506v48.164h31.41v-48.164h14.66zM272.23 858.802h-14.66v-31.41H226.16v31.41h-35.6v-31.41H159.15v31.41H127.738v-31.41H96.328v31.41H62.822v-31.41H31.412v31.41h-14.66v31.412h14.66v48.164h31.41v-48.164h33.506v48.164h31.41v-48.164h31.412v48.164H190.56v-48.164h35.6v48.164h31.41v-48.164h14.66z" fill="#36C9A3" p-id="5130"></path><path d="M479.542 842.048h31.412v31.412h-31.412z" fill="#232323" p-id="5131"></path><path d="M511.998 359.92l-223.628 154.82v424.074h31.412v-159.584h111.598v159.15h31.412V731.066h98.422V938.38h31.412v-159.15h111.59v159.584h31.412V514.738L511.998 359.92z m80.624 387.896v-48.164h-161.244v48.164H319.78V531.198l192.216-133.074 192.216 133.074v216.618h-111.59z" fill="#232323" p-id="5132"></path><path d="M814.594 569.82h-62.824v-31.41h31.412v-7.428L512 334.444l-271.182 196.538v7.428h31.412v31.41h-62.824v-54.866L512 295.648l302.594 219.306z" fill="#232323" p-id="5133"></path><path d="M511.998 673.13l-84.13-84.128c-10.77-10.772-16.7-25.086-16.7-40.318 0-15.23 5.93-29.546 16.7-40.316 10.77-10.77 25.086-16.7 40.316-16.7s29.548 5.93 40.316 16.702l3.5 3.5 3.498-3.5c22.23-22.228 58.4-22.23 80.632-0.002h-0.002 0.002c10.768 10.77 16.7 25.084 16.7 40.316 0 15.23-5.93 29.548-16.7 40.318l-84.132 84.128z m-43.816-150.046a25.44 25.44 0 0 0-18.106 7.5 25.432 25.432 0 0 0-7.498 18.104 25.44 25.44 0 0 0 7.5 18.106l61.918 61.916 61.918-61.918a25.434 25.434 0 0 0 7.5-18.106 25.44 25.44 0 0 0-7.498-18.104h-0.002c-9.98-9.986-26.226-9.982-36.206 0l-25.71 25.708-25.71-25.708a25.452 25.452 0 0 0-18.106-7.498zM624.032 316.436h64.916v31.412h-64.916z" fill="#232323" p-id="5134"></path><path d="M632.02 253.84a15.044 15.044 0 0 1 17.704-11.798l0.434 0.086a15.044 15.044 0 0 1 29.502 5.906l-5.906 29.502-29.936-5.992a15.044 15.044 0 0 1-11.798-17.704zM708.754 148.2c8.31-0.02 11.606 6.694 11.606 15.004v0.442c14.658-0.02 18.54 6.694 18.562 15.004 0.02 8.31-4.956 15.06-13.264 15.084l-29.216 0.08-1.384-30.53c-0.026-8.308 5.39-15.062 13.696-15.084zM612.804 87.97c3.774-7.402 11.152-7.074 18.548-3.282l0.394 0.202c7.282-14.24 14.52-13.636 21.922-9.864 7.402 3.774 11.188 11.186 7.416 18.59l-13.24 25.984-27.834-12.63c-7.404-3.772-10.98-11.598-7.206-19zM721.464 37.602c8.226-1.168 12.2 5.06 13.348 13.286l0.06 0.438c15.838-2.23 19.506 4.04 20.674 12.268 1.168 8.226-2.72 15.586-10.946 16.754l-28.87 4.106-5.668-30.036c-1.172-8.222 3.176-15.644 11.402-16.816z" fill="#FA004B" p-id="5135"></path></svg>